<?xml version="1.0" standalone="no"?>
<!DOCTYPE svg PUBLIC "-//W3C//DTD SVG 20010904//EN"
 "http://www.w3.org/TR/2001/REC-SVG-20010904/DTD/svg10.dtd">
<svg version="1.0" xmlns="http://www.w3.org/2000/svg"
 width="407.000000pt" height="407.000000pt" viewBox="0 0 407.000000 407.000000"
 preserveAspectRatio="xMidYMid meet">

<g transform="translate(0.000000,407.000000) scale(0.100000,-0.100000)"
fill="#000000" stroke="none">
<path d="M1803 4029 c-347 -40 -697 -182 -985 -400 -106 -80 -297 -271 -377
-377 -404 -535 -519 -1220 -310 -1855 144 -441 453 -832 852 -1079 639 -397
1475 -397 2114 0 257 159 496 398 655 655 397 639 397 1475 0 2114 -119 192
-317 412 -490 542 -294 222 -636 359 -997 401 -104 11 -358 11 -462 -1z m534
-588 c184 -40 371 -121 523 -224 97 -66 301 -270 367 -367 104 -153 183 -338
225 -528 32 -141 32 -443 0 -584 -42 -190 -121 -375 -225 -528 -66 -97 -270
-301 -367 -367 -153 -104 -338 -183 -528 -225 -141 -32 -443 -32 -584 0 -190
42 -375 121 -528 225 -97 66 -301 270 -367 367 -104 153 -183 338 -225 528
-32 141 -32 443 0 584 42 190 121 375 225 528 66 97 270 301 367 367 189 129
403 209 655 247 77 11 372 -3 462 -23z"/>
<path d="M1170 2480 c0 -16 7 -20 38 -20 l37 0 155 -418 155 -417 82 -3 82 -3
-35 -97 c-85 -233 -162 -323 -269 -313 -25 2 -35 18 -35 59 0 30 2 32 34 32
38 0 46 12 46 68 0 79 -51 122 -143 123 -72 1 -113 -21 -138 -74 -43 -95 -11
-179 86 -230 57 -30 193 -30 250 0 57 30 117 98 153 174 17 35 105 280 197
544 91 264 172 496 179 515 l14 35 78 3 79 2 169 -420 169 -421 105 3 105 3
119 365 c65 201 125 388 134 417 15 51 16 52 57 55 29 2 42 8 42 18 0 12 -22
15 -122 18 -117 2 -123 2 -123 -17 0 -17 8 -20 59 -23 l58 -3 -96 -297 c-53
-163 -98 -294 -101 -292 -3 3 -53 137 -111 297 l-106 292 56 5 c41 4 56 9 56
20 0 13 -52 15 -397 18 -393 2 -398 2 -398 -18 0 -18 7 -20 61 -20 45 0 60 -3
57 -13 -15 -60 -204 -584 -209 -579 -4 4 -49 139 -102 300 l-94 292 48 0 c42
0 49 3 49 20 0 19 -7 20 -265 20 -258 0 -265 -1 -265 -20z"/>
</g>
</svg>
